# xmcd CD database file
#
# Track frame offsets:
#	150
#	20212
#	42213
#	60880
#	87133
#	112921
#	136496
#	158686
#	176179
#	193120
#	233789
#	259236
#	281962
#
# Disc length: 3899 seconds
#
# Revision: 1
# Processed by: cddbd v1.4PL0 Copyright (c) Steve Scherf et al.
# Submitted via: CDex 1.40Beta9
#
DISCID=b40f390d
DTITLE=blind dog and the reverend - love n pain
DYEAR=2000
DGENRE=Blues
TTITLE0=mr bloom
TTITLE1=blues keep on comin
TTITLE2=desire
TTITLE3=thousand miles
TTITLE4=la lament
TTITLE5=wedding day blues
TTITLE6=love n pain
TTITLE7=kitty
TTITLE8=hot and sassy
TTITLE9=nite time
TTITLE10=skinny bone baby
TTITLE11=blues down town
TTITLE12=make it back
EXTD=YEAR: 2000 ID3G: 0
EXTT0=
EXTT1=
EXTT2=
EXTT3=
EXTT4=
EXTT5=
EXTT6=
EXTT7=
EXTT8=
EXTT9=
EXTT10=
EXTT11=
EXTT12=
PLAYORDER=
